<mxfile host="app.diagrams.net" agent="Mozilla/5.0 (Macintosh; Intel Mac OS X 10_15_7) AppleWebKit/537.36 (KHTML, like Gecko) Chrome/130.0.0.0 Safari/537.36" version="24.8.3">
  <diagram name="ページ1" id="xBAIxZ258H9hVGIG7pwN">
    <mxGraphModel dx="984" dy="625" grid="1" gridSize="10" guides="1" tooltips="1" connect="1" arrows="1" fold="1" page="1" pageScale="1" pageWidth="827" pageHeight="1169" math="0" shadow="0">
      <root>
        <mxCell id="0" />
        <mxCell id="1" parent="0" />
        <mxCell id="diK6dFrDXfG8zKTfdCGS-64" value="" style="group" vertex="1" connectable="0" parent="1">
          <mxGeometry x="80" y="320" width="180" height="240" as="geometry" />
        </mxCell>
        <mxCell id="diK6dFrDXfG8zKTfdCGS-42" value="チームテーブル" style="shape=table;startSize=30;container=1;collapsible=1;childLayout=tableLayout;fixedRows=1;rowLines=0;fontStyle=1;align=center;resizeLast=1;movable=1;resizable=1;rotatable=1;deletable=1;editable=1;connectable=1;" vertex="1" parent="diK6dFrDXfG8zKTfdCGS-64">
          <mxGeometry width="180" height="240" as="geometry">
            <mxRectangle x="40" y="320" width="120" height="30" as="alternateBounds" />
          </mxGeometry>
        </mxCell>
        <mxCell id="diK6dFrDXfG8zKTfdCGS-43" value="" style="shape=tableRow;horizontal=0;startSize=0;swimlaneHead=0;swimlaneBody=0;fillColor=none;collapsible=0;dropTarget=0;points=[[0,0.5],[1,0.5]];portConstraint=eastwest;top=0;left=0;right=0;bottom=1;movable=1;resizable=1;rotatable=1;deletable=1;editable=1;connectable=1;" vertex="1" parent="diK6dFrDXfG8zKTfdCGS-42">
          <mxGeometry y="30" width="180" height="30" as="geometry" />
        </mxCell>
        <mxCell id="diK6dFrDXfG8zKTfdCGS-44" value="PK" style="shape=partialRectangle;connectable=1;fillColor=none;top=0;left=0;bottom=0;right=0;fontStyle=1;overflow=hidden;movable=1;resizable=1;rotatable=1;deletable=1;editable=1;" vertex="1" parent="diK6dFrDXfG8zKTfdCGS-43">
          <mxGeometry width="30" height="30" as="geometry">
            <mxRectangle width="30" height="30" as="alternateBounds" />
          </mxGeometry>
        </mxCell>
        <mxCell id="diK6dFrDXfG8zKTfdCGS-45" value="チームID" style="shape=partialRectangle;connectable=1;fillColor=none;top=0;left=0;bottom=0;right=0;align=left;spacingLeft=6;fontStyle=5;overflow=hidden;movable=1;resizable=1;rotatable=1;deletable=1;editable=1;" vertex="1" parent="diK6dFrDXfG8zKTfdCGS-43">
          <mxGeometry x="30" width="150" height="30" as="geometry">
            <mxRectangle width="150" height="30" as="alternateBounds" />
          </mxGeometry>
        </mxCell>
        <mxCell id="diK6dFrDXfG8zKTfdCGS-46" value="" style="shape=tableRow;horizontal=0;startSize=0;swimlaneHead=0;swimlaneBody=0;fillColor=none;collapsible=0;dropTarget=0;points=[[0,0.5],[1,0.5]];portConstraint=eastwest;top=0;left=0;right=0;bottom=0;movable=1;resizable=1;rotatable=1;deletable=1;editable=1;connectable=1;" vertex="1" parent="diK6dFrDXfG8zKTfdCGS-42">
          <mxGeometry y="60" width="180" height="30" as="geometry" />
        </mxCell>
        <mxCell id="diK6dFrDXfG8zKTfdCGS-47" value="" style="shape=partialRectangle;connectable=1;fillColor=none;top=0;left=0;bottom=0;right=0;editable=1;overflow=hidden;movable=1;resizable=1;rotatable=1;deletable=1;" vertex="1" parent="diK6dFrDXfG8zKTfdCGS-46">
          <mxGeometry width="30" height="30" as="geometry">
            <mxRectangle width="30" height="30" as="alternateBounds" />
          </mxGeometry>
        </mxCell>
        <mxCell id="diK6dFrDXfG8zKTfdCGS-48" value="チーム名" style="shape=partialRectangle;connectable=1;fillColor=none;top=0;left=0;bottom=0;right=0;align=left;spacingLeft=6;overflow=hidden;movable=1;resizable=1;rotatable=1;deletable=1;editable=1;" vertex="1" parent="diK6dFrDXfG8zKTfdCGS-46">
          <mxGeometry x="30" width="150" height="30" as="geometry">
            <mxRectangle width="150" height="30" as="alternateBounds" />
          </mxGeometry>
        </mxCell>
        <mxCell id="diK6dFrDXfG8zKTfdCGS-49" value="" style="shape=tableRow;horizontal=0;startSize=0;swimlaneHead=0;swimlaneBody=0;fillColor=none;collapsible=0;dropTarget=0;points=[[0,0.5],[1,0.5]];portConstraint=eastwest;top=0;left=0;right=0;bottom=0;movable=1;resizable=1;rotatable=1;deletable=1;editable=1;connectable=1;" vertex="1" parent="diK6dFrDXfG8zKTfdCGS-42">
          <mxGeometry y="90" width="180" height="30" as="geometry" />
        </mxCell>
        <mxCell id="diK6dFrDXfG8zKTfdCGS-50" value="" style="shape=partialRectangle;connectable=1;fillColor=none;top=0;left=0;bottom=0;right=0;editable=1;overflow=hidden;movable=1;resizable=1;rotatable=1;deletable=1;" vertex="1" parent="diK6dFrDXfG8zKTfdCGS-49">
          <mxGeometry width="30" height="30" as="geometry">
            <mxRectangle width="30" height="30" as="alternateBounds" />
          </mxGeometry>
        </mxCell>
        <mxCell id="diK6dFrDXfG8zKTfdCGS-51" value="説明文" style="shape=partialRectangle;connectable=1;fillColor=none;top=0;left=0;bottom=0;right=0;align=left;spacingLeft=6;overflow=hidden;movable=1;resizable=1;rotatable=1;deletable=1;editable=1;" vertex="1" parent="diK6dFrDXfG8zKTfdCGS-49">
          <mxGeometry x="30" width="150" height="30" as="geometry">
            <mxRectangle width="150" height="30" as="alternateBounds" />
          </mxGeometry>
        </mxCell>
        <mxCell id="diK6dFrDXfG8zKTfdCGS-52" value="" style="shape=tableRow;horizontal=0;startSize=0;swimlaneHead=0;swimlaneBody=0;fillColor=none;collapsible=0;dropTarget=0;points=[[0,0.5],[1,0.5]];portConstraint=eastwest;top=0;left=0;right=0;bottom=0;movable=1;resizable=1;rotatable=1;deletable=1;editable=1;connectable=1;" vertex="1" parent="diK6dFrDXfG8zKTfdCGS-42">
          <mxGeometry y="120" width="180" height="30" as="geometry" />
        </mxCell>
        <mxCell id="diK6dFrDXfG8zKTfdCGS-53" value="" style="shape=partialRectangle;connectable=1;fillColor=none;top=0;left=0;bottom=0;right=0;editable=1;overflow=hidden;movable=1;resizable=1;rotatable=1;deletable=1;" vertex="1" parent="diK6dFrDXfG8zKTfdCGS-52">
          <mxGeometry width="30" height="30" as="geometry">
            <mxRectangle width="30" height="30" as="alternateBounds" />
          </mxGeometry>
        </mxCell>
        <mxCell id="diK6dFrDXfG8zKTfdCGS-54" value="作成したカスタマー（FK）" style="shape=partialRectangle;connectable=1;fillColor=none;top=0;left=0;bottom=0;right=0;align=left;spacingLeft=6;overflow=hidden;movable=1;resizable=1;rotatable=1;deletable=1;editable=1;" vertex="1" parent="diK6dFrDXfG8zKTfdCGS-52">
          <mxGeometry x="30" width="150" height="30" as="geometry">
            <mxRectangle width="150" height="30" as="alternateBounds" />
          </mxGeometry>
        </mxCell>
        <mxCell id="diK6dFrDXfG8zKTfdCGS-55" value="" style="shape=tableRow;horizontal=0;startSize=0;swimlaneHead=0;swimlaneBody=0;fillColor=none;collapsible=0;dropTarget=0;points=[[0,0.5],[1,0.5]];portConstraint=eastwest;top=0;left=0;right=0;bottom=0;movable=1;resizable=1;rotatable=1;deletable=1;editable=1;connectable=1;" vertex="1" parent="diK6dFrDXfG8zKTfdCGS-64">
          <mxGeometry y="150" width="180" height="30" as="geometry" />
        </mxCell>
        <mxCell id="diK6dFrDXfG8zKTfdCGS-56" value="" style="shape=partialRectangle;connectable=1;fillColor=none;top=0;left=0;bottom=0;right=0;editable=1;overflow=hidden;movable=1;resizable=1;rotatable=1;deletable=1;" vertex="1" parent="diK6dFrDXfG8zKTfdCGS-55">
          <mxGeometry width="30" height="30" as="geometry">
            <mxRectangle width="30" height="30" as="alternateBounds" />
          </mxGeometry>
        </mxCell>
        <mxCell id="diK6dFrDXfG8zKTfdCGS-57" value="興味のあるイベント（FK）" style="shape=partialRectangle;connectable=1;fillColor=none;top=0;left=0;bottom=0;right=0;align=left;spacingLeft=6;overflow=hidden;movable=1;resizable=1;rotatable=1;deletable=1;editable=1;" vertex="1" parent="diK6dFrDXfG8zKTfdCGS-55">
          <mxGeometry x="30" width="150" height="30" as="geometry">
            <mxRectangle width="150" height="30" as="alternateBounds" />
          </mxGeometry>
        </mxCell>
        <mxCell id="diK6dFrDXfG8zKTfdCGS-58" value="" style="shape=tableRow;horizontal=0;startSize=0;swimlaneHead=0;swimlaneBody=0;fillColor=none;collapsible=0;dropTarget=0;points=[[0,0.5],[1,0.5]];portConstraint=eastwest;top=0;left=0;right=0;bottom=0;movable=1;resizable=1;rotatable=1;deletable=1;editable=1;connectable=1;" vertex="1" parent="diK6dFrDXfG8zKTfdCGS-64">
          <mxGeometry y="180" width="180" height="30" as="geometry" />
        </mxCell>
        <mxCell id="diK6dFrDXfG8zKTfdCGS-59" value="" style="shape=partialRectangle;connectable=1;fillColor=none;top=0;left=0;bottom=0;right=0;editable=1;overflow=hidden;movable=1;resizable=1;rotatable=1;deletable=1;" vertex="1" parent="diK6dFrDXfG8zKTfdCGS-58">
          <mxGeometry width="30" height="30" as="geometry">
            <mxRectangle width="30" height="30" as="alternateBounds" />
          </mxGeometry>
        </mxCell>
        <mxCell id="diK6dFrDXfG8zKTfdCGS-60" value="Row 3" style="shape=partialRectangle;connectable=1;fillColor=none;top=0;left=0;bottom=0;right=0;align=left;spacingLeft=6;overflow=hidden;movable=1;resizable=1;rotatable=1;deletable=1;editable=1;" vertex="1" parent="diK6dFrDXfG8zKTfdCGS-58">
          <mxGeometry x="30" width="150" height="30" as="geometry">
            <mxRectangle width="150" height="30" as="alternateBounds" />
          </mxGeometry>
        </mxCell>
        <mxCell id="diK6dFrDXfG8zKTfdCGS-61" value="" style="shape=tableRow;horizontal=0;startSize=0;swimlaneHead=0;swimlaneBody=0;fillColor=none;collapsible=0;dropTarget=0;points=[[0,0.5],[1,0.5]];portConstraint=eastwest;top=0;left=0;right=0;bottom=0;movable=1;resizable=1;rotatable=1;deletable=1;editable=1;connectable=1;" vertex="1" parent="diK6dFrDXfG8zKTfdCGS-64">
          <mxGeometry y="210" width="180" height="30" as="geometry" />
        </mxCell>
        <mxCell id="diK6dFrDXfG8zKTfdCGS-62" value="" style="shape=partialRectangle;connectable=1;fillColor=none;top=0;left=0;bottom=0;right=0;editable=1;overflow=hidden;movable=1;resizable=1;rotatable=1;deletable=1;" vertex="1" parent="diK6dFrDXfG8zKTfdCGS-61">
          <mxGeometry width="30" height="30" as="geometry">
            <mxRectangle width="30" height="30" as="alternateBounds" />
          </mxGeometry>
        </mxCell>
        <mxCell id="diK6dFrDXfG8zKTfdCGS-63" value="Row 3" style="shape=partialRectangle;connectable=1;fillColor=none;top=0;left=0;bottom=0;right=0;align=left;spacingLeft=6;overflow=hidden;movable=1;resizable=1;rotatable=1;deletable=1;editable=1;" vertex="1" parent="diK6dFrDXfG8zKTfdCGS-61">
          <mxGeometry x="30" width="150" height="30" as="geometry">
            <mxRectangle width="150" height="30" as="alternateBounds" />
          </mxGeometry>
        </mxCell>
        <mxCell id="diK6dFrDXfG8zKTfdCGS-65" value="" style="group" vertex="1" connectable="0" parent="1">
          <mxGeometry x="80" y="40" width="180" height="210" as="geometry" />
        </mxCell>
        <mxCell id="diK6dFrDXfG8zKTfdCGS-1" value="イベントテーブル" style="shape=table;startSize=30;container=1;collapsible=1;childLayout=tableLayout;fixedRows=1;rowLines=0;fontStyle=1;align=center;resizeLast=1;" vertex="1" parent="diK6dFrDXfG8zKTfdCGS-65">
          <mxGeometry width="180" height="210" as="geometry" />
        </mxCell>
        <mxCell id="diK6dFrDXfG8zKTfdCGS-2" value="" style="shape=tableRow;horizontal=0;startSize=0;swimlaneHead=0;swimlaneBody=0;fillColor=none;collapsible=0;dropTarget=0;points=[[0,0.5],[1,0.5]];portConstraint=eastwest;top=0;left=0;right=0;bottom=1;" vertex="1" parent="diK6dFrDXfG8zKTfdCGS-1">
          <mxGeometry y="30" width="180" height="30" as="geometry" />
        </mxCell>
        <mxCell id="diK6dFrDXfG8zKTfdCGS-3" value="PK" style="shape=partialRectangle;connectable=0;fillColor=none;top=0;left=0;bottom=0;right=0;fontStyle=1;overflow=hidden;" vertex="1" parent="diK6dFrDXfG8zKTfdCGS-2">
          <mxGeometry width="30" height="30" as="geometry">
            <mxRectangle width="30" height="30" as="alternateBounds" />
          </mxGeometry>
        </mxCell>
        <mxCell id="diK6dFrDXfG8zKTfdCGS-4" value="イベントID" style="shape=partialRectangle;connectable=0;fillColor=none;top=0;left=0;bottom=0;right=0;align=left;spacingLeft=6;fontStyle=5;overflow=hidden;" vertex="1" parent="diK6dFrDXfG8zKTfdCGS-2">
          <mxGeometry x="30" width="150" height="30" as="geometry">
            <mxRectangle width="150" height="30" as="alternateBounds" />
          </mxGeometry>
        </mxCell>
        <mxCell id="diK6dFrDXfG8zKTfdCGS-5" value="" style="shape=tableRow;horizontal=0;startSize=0;swimlaneHead=0;swimlaneBody=0;fillColor=none;collapsible=0;dropTarget=0;points=[[0,0.5],[1,0.5]];portConstraint=eastwest;top=0;left=0;right=0;bottom=0;" vertex="1" parent="diK6dFrDXfG8zKTfdCGS-1">
          <mxGeometry y="60" width="180" height="30" as="geometry" />
        </mxCell>
        <mxCell id="diK6dFrDXfG8zKTfdCGS-6" value="" style="shape=partialRectangle;connectable=0;fillColor=none;top=0;left=0;bottom=0;right=0;editable=1;overflow=hidden;" vertex="1" parent="diK6dFrDXfG8zKTfdCGS-5">
          <mxGeometry width="30" height="30" as="geometry">
            <mxRectangle width="30" height="30" as="alternateBounds" />
          </mxGeometry>
        </mxCell>
        <mxCell id="diK6dFrDXfG8zKTfdCGS-7" value="タイトル" style="shape=partialRectangle;connectable=0;fillColor=none;top=0;left=0;bottom=0;right=0;align=left;spacingLeft=6;overflow=hidden;" vertex="1" parent="diK6dFrDXfG8zKTfdCGS-5">
          <mxGeometry x="30" width="150" height="30" as="geometry">
            <mxRectangle width="150" height="30" as="alternateBounds" />
          </mxGeometry>
        </mxCell>
        <mxCell id="diK6dFrDXfG8zKTfdCGS-8" value="" style="shape=tableRow;horizontal=0;startSize=0;swimlaneHead=0;swimlaneBody=0;fillColor=none;collapsible=0;dropTarget=0;points=[[0,0.5],[1,0.5]];portConstraint=eastwest;top=0;left=0;right=0;bottom=0;" vertex="1" parent="diK6dFrDXfG8zKTfdCGS-1">
          <mxGeometry y="90" width="180" height="30" as="geometry" />
        </mxCell>
        <mxCell id="diK6dFrDXfG8zKTfdCGS-9" value="" style="shape=partialRectangle;connectable=0;fillColor=none;top=0;left=0;bottom=0;right=0;editable=1;overflow=hidden;" vertex="1" parent="diK6dFrDXfG8zKTfdCGS-8">
          <mxGeometry width="30" height="30" as="geometry">
            <mxRectangle width="30" height="30" as="alternateBounds" />
          </mxGeometry>
        </mxCell>
        <mxCell id="diK6dFrDXfG8zKTfdCGS-10" value="場所" style="shape=partialRectangle;connectable=0;fillColor=none;top=0;left=0;bottom=0;right=0;align=left;spacingLeft=6;overflow=hidden;" vertex="1" parent="diK6dFrDXfG8zKTfdCGS-8">
          <mxGeometry x="30" width="150" height="30" as="geometry">
            <mxRectangle width="150" height="30" as="alternateBounds" />
          </mxGeometry>
        </mxCell>
        <mxCell id="diK6dFrDXfG8zKTfdCGS-11" value="" style="shape=tableRow;horizontal=0;startSize=0;swimlaneHead=0;swimlaneBody=0;fillColor=none;collapsible=0;dropTarget=0;points=[[0,0.5],[1,0.5]];portConstraint=eastwest;top=0;left=0;right=0;bottom=0;" vertex="1" parent="diK6dFrDXfG8zKTfdCGS-1">
          <mxGeometry y="120" width="180" height="30" as="geometry" />
        </mxCell>
        <mxCell id="diK6dFrDXfG8zKTfdCGS-12" value="" style="shape=partialRectangle;connectable=0;fillColor=none;top=0;left=0;bottom=0;right=0;editable=1;overflow=hidden;" vertex="1" parent="diK6dFrDXfG8zKTfdCGS-11">
          <mxGeometry width="30" height="30" as="geometry">
            <mxRectangle width="30" height="30" as="alternateBounds" />
          </mxGeometry>
        </mxCell>
        <mxCell id="diK6dFrDXfG8zKTfdCGS-13" value="開始日時" style="shape=partialRectangle;connectable=0;fillColor=none;top=0;left=0;bottom=0;right=0;align=left;spacingLeft=6;overflow=hidden;" vertex="1" parent="diK6dFrDXfG8zKTfdCGS-11">
          <mxGeometry x="30" width="150" height="30" as="geometry">
            <mxRectangle width="150" height="30" as="alternateBounds" />
          </mxGeometry>
        </mxCell>
        <mxCell id="diK6dFrDXfG8zKTfdCGS-14" value="" style="shape=tableRow;horizontal=0;startSize=0;swimlaneHead=0;swimlaneBody=0;fillColor=none;collapsible=0;dropTarget=0;points=[[0,0.5],[1,0.5]];portConstraint=eastwest;top=0;left=0;right=0;bottom=0;" vertex="1" parent="diK6dFrDXfG8zKTfdCGS-65">
          <mxGeometry y="150" width="180" height="30" as="geometry" />
        </mxCell>
        <mxCell id="diK6dFrDXfG8zKTfdCGS-15" value="" style="shape=partialRectangle;connectable=0;fillColor=none;top=0;left=0;bottom=0;right=0;editable=1;overflow=hidden;" vertex="1" parent="diK6dFrDXfG8zKTfdCGS-14">
          <mxGeometry width="30" height="30" as="geometry">
            <mxRectangle width="30" height="30" as="alternateBounds" />
          </mxGeometry>
        </mxCell>
        <mxCell id="diK6dFrDXfG8zKTfdCGS-16" value="終了日時" style="shape=partialRectangle;connectable=0;fillColor=none;top=0;left=0;bottom=0;right=0;align=left;spacingLeft=6;overflow=hidden;" vertex="1" parent="diK6dFrDXfG8zKTfdCGS-14">
          <mxGeometry x="30" width="150" height="30" as="geometry">
            <mxRectangle width="150" height="30" as="alternateBounds" />
          </mxGeometry>
        </mxCell>
        <mxCell id="diK6dFrDXfG8zKTfdCGS-17" value="" style="shape=tableRow;horizontal=0;startSize=0;swimlaneHead=0;swimlaneBody=0;fillColor=none;collapsible=0;dropTarget=0;points=[[0,0.5],[1,0.5]];portConstraint=eastwest;top=0;left=0;right=0;bottom=0;" vertex="1" parent="diK6dFrDXfG8zKTfdCGS-65">
          <mxGeometry y="180" width="180" height="30" as="geometry" />
        </mxCell>
        <mxCell id="diK6dFrDXfG8zKTfdCGS-18" value="" style="shape=partialRectangle;connectable=0;fillColor=none;top=0;left=0;bottom=0;right=0;editable=1;overflow=hidden;" vertex="1" parent="diK6dFrDXfG8zKTfdCGS-17">
          <mxGeometry width="30" height="30" as="geometry">
            <mxRectangle width="30" height="30" as="alternateBounds" />
          </mxGeometry>
        </mxCell>
        <mxCell id="diK6dFrDXfG8zKTfdCGS-19" value="説明文" style="shape=partialRectangle;connectable=0;fillColor=none;top=0;left=0;bottom=0;right=0;align=left;spacingLeft=6;overflow=hidden;" vertex="1" parent="diK6dFrDXfG8zKTfdCGS-17">
          <mxGeometry x="30" width="150" height="30" as="geometry">
            <mxRectangle width="150" height="30" as="alternateBounds" />
          </mxGeometry>
        </mxCell>
        <mxCell id="diK6dFrDXfG8zKTfdCGS-66" value="" style="group" vertex="1" connectable="0" parent="1">
          <mxGeometry x="324" y="40" width="180" height="240" as="geometry" />
        </mxCell>
        <mxCell id="diK6dFrDXfG8zKTfdCGS-20" value="カスタマーテーブル" style="shape=table;startSize=30;container=1;collapsible=1;childLayout=tableLayout;fixedRows=1;rowLines=0;fontStyle=1;align=center;resizeLast=1;" vertex="1" parent="diK6dFrDXfG8zKTfdCGS-66">
          <mxGeometry width="180" height="240" as="geometry" />
        </mxCell>
        <mxCell id="diK6dFrDXfG8zKTfdCGS-21" value="" style="shape=tableRow;horizontal=0;startSize=0;swimlaneHead=0;swimlaneBody=0;fillColor=none;collapsible=0;dropTarget=0;points=[[0,0.5],[1,0.5]];portConstraint=eastwest;top=0;left=0;right=0;bottom=1;" vertex="1" parent="diK6dFrDXfG8zKTfdCGS-20">
          <mxGeometry y="30" width="180" height="30" as="geometry" />
        </mxCell>
        <mxCell id="diK6dFrDXfG8zKTfdCGS-22" value="PK" style="shape=partialRectangle;connectable=0;fillColor=none;top=0;left=0;bottom=0;right=0;fontStyle=1;overflow=hidden;" vertex="1" parent="diK6dFrDXfG8zKTfdCGS-21">
          <mxGeometry width="30" height="30" as="geometry">
            <mxRectangle width="30" height="30" as="alternateBounds" />
          </mxGeometry>
        </mxCell>
        <mxCell id="diK6dFrDXfG8zKTfdCGS-23" value="カスタマーID" style="shape=partialRectangle;connectable=0;fillColor=none;top=0;left=0;bottom=0;right=0;align=left;spacingLeft=6;fontStyle=5;overflow=hidden;" vertex="1" parent="diK6dFrDXfG8zKTfdCGS-21">
          <mxGeometry x="30" width="150" height="30" as="geometry">
            <mxRectangle width="150" height="30" as="alternateBounds" />
          </mxGeometry>
        </mxCell>
        <mxCell id="diK6dFrDXfG8zKTfdCGS-24" value="" style="shape=tableRow;horizontal=0;startSize=0;swimlaneHead=0;swimlaneBody=0;fillColor=none;collapsible=0;dropTarget=0;points=[[0,0.5],[1,0.5]];portConstraint=eastwest;top=0;left=0;right=0;bottom=0;" vertex="1" parent="diK6dFrDXfG8zKTfdCGS-20">
          <mxGeometry y="60" width="180" height="30" as="geometry" />
        </mxCell>
        <mxCell id="diK6dFrDXfG8zKTfdCGS-25" value="" style="shape=partialRectangle;connectable=0;fillColor=none;top=0;left=0;bottom=0;right=0;editable=1;overflow=hidden;" vertex="1" parent="diK6dFrDXfG8zKTfdCGS-24">
          <mxGeometry width="30" height="30" as="geometry">
            <mxRectangle width="30" height="30" as="alternateBounds" />
          </mxGeometry>
        </mxCell>
        <mxCell id="diK6dFrDXfG8zKTfdCGS-26" value="ニックネーム" style="shape=partialRectangle;connectable=0;fillColor=none;top=0;left=0;bottom=0;right=0;align=left;spacingLeft=6;overflow=hidden;" vertex="1" parent="diK6dFrDXfG8zKTfdCGS-24">
          <mxGeometry x="30" width="150" height="30" as="geometry">
            <mxRectangle width="150" height="30" as="alternateBounds" />
          </mxGeometry>
        </mxCell>
        <mxCell id="diK6dFrDXfG8zKTfdCGS-27" value="" style="shape=tableRow;horizontal=0;startSize=0;swimlaneHead=0;swimlaneBody=0;fillColor=none;collapsible=0;dropTarget=0;points=[[0,0.5],[1,0.5]];portConstraint=eastwest;top=0;left=0;right=0;bottom=0;" vertex="1" parent="diK6dFrDXfG8zKTfdCGS-20">
          <mxGeometry y="90" width="180" height="30" as="geometry" />
        </mxCell>
        <mxCell id="diK6dFrDXfG8zKTfdCGS-28" value="" style="shape=partialRectangle;connectable=0;fillColor=none;top=0;left=0;bottom=0;right=0;editable=1;overflow=hidden;" vertex="1" parent="diK6dFrDXfG8zKTfdCGS-27">
          <mxGeometry width="30" height="30" as="geometry">
            <mxRectangle width="30" height="30" as="alternateBounds" />
          </mxGeometry>
        </mxCell>
        <mxCell id="diK6dFrDXfG8zKTfdCGS-29" value="説明文" style="shape=partialRectangle;connectable=0;fillColor=none;top=0;left=0;bottom=0;right=0;align=left;spacingLeft=6;overflow=hidden;" vertex="1" parent="diK6dFrDXfG8zKTfdCGS-27">
          <mxGeometry x="30" width="150" height="30" as="geometry">
            <mxRectangle width="150" height="30" as="alternateBounds" />
          </mxGeometry>
        </mxCell>
        <mxCell id="diK6dFrDXfG8zKTfdCGS-30" value="" style="shape=tableRow;horizontal=0;startSize=0;swimlaneHead=0;swimlaneBody=0;fillColor=none;collapsible=0;dropTarget=0;points=[[0,0.5],[1,0.5]];portConstraint=eastwest;top=0;left=0;right=0;bottom=0;" vertex="1" parent="diK6dFrDXfG8zKTfdCGS-20">
          <mxGeometry y="120" width="180" height="30" as="geometry" />
        </mxCell>
        <mxCell id="diK6dFrDXfG8zKTfdCGS-31" value="" style="shape=partialRectangle;connectable=0;fillColor=none;top=0;left=0;bottom=0;right=0;editable=1;overflow=hidden;" vertex="1" parent="diK6dFrDXfG8zKTfdCGS-30">
          <mxGeometry width="30" height="30" as="geometry">
            <mxRectangle width="30" height="30" as="alternateBounds" />
          </mxGeometry>
        </mxCell>
        <mxCell id="diK6dFrDXfG8zKTfdCGS-32" value="誕生日" style="shape=partialRectangle;connectable=0;fillColor=none;top=0;left=0;bottom=0;right=0;align=left;spacingLeft=6;overflow=hidden;" vertex="1" parent="diK6dFrDXfG8zKTfdCGS-30">
          <mxGeometry x="30" width="150" height="30" as="geometry">
            <mxRectangle width="150" height="30" as="alternateBounds" />
          </mxGeometry>
        </mxCell>
        <mxCell id="diK6dFrDXfG8zKTfdCGS-33" value="" style="shape=tableRow;horizontal=0;startSize=0;swimlaneHead=0;swimlaneBody=0;fillColor=none;collapsible=0;dropTarget=0;points=[[0,0.5],[1,0.5]];portConstraint=eastwest;top=0;left=0;right=0;bottom=0;" vertex="1" parent="diK6dFrDXfG8zKTfdCGS-66">
          <mxGeometry y="150" width="180" height="30" as="geometry" />
        </mxCell>
        <mxCell id="diK6dFrDXfG8zKTfdCGS-34" value="" style="shape=partialRectangle;connectable=0;fillColor=none;top=0;left=0;bottom=0;right=0;editable=1;overflow=hidden;" vertex="1" parent="diK6dFrDXfG8zKTfdCGS-33">
          <mxGeometry width="30" height="30" as="geometry">
            <mxRectangle width="30" height="30" as="alternateBounds" />
          </mxGeometry>
        </mxCell>
        <mxCell id="diK6dFrDXfG8zKTfdCGS-35" value="希望タスク" style="shape=partialRectangle;connectable=0;fillColor=none;top=0;left=0;bottom=0;right=0;align=left;spacingLeft=6;overflow=hidden;" vertex="1" parent="diK6dFrDXfG8zKTfdCGS-33">
          <mxGeometry x="30" width="150" height="30" as="geometry">
            <mxRectangle width="150" height="30" as="alternateBounds" />
          </mxGeometry>
        </mxCell>
        <mxCell id="diK6dFrDXfG8zKTfdCGS-36" value="" style="shape=tableRow;horizontal=0;startSize=0;swimlaneHead=0;swimlaneBody=0;fillColor=none;collapsible=0;dropTarget=0;points=[[0,0.5],[1,0.5]];portConstraint=eastwest;top=0;left=0;right=0;bottom=0;" vertex="1" parent="diK6dFrDXfG8zKTfdCGS-66">
          <mxGeometry y="180" width="180" height="30" as="geometry" />
        </mxCell>
        <mxCell id="diK6dFrDXfG8zKTfdCGS-37" value="" style="shape=partialRectangle;connectable=0;fillColor=none;top=0;left=0;bottom=0;right=0;editable=1;overflow=hidden;" vertex="1" parent="diK6dFrDXfG8zKTfdCGS-36">
          <mxGeometry width="30" height="30" as="geometry">
            <mxRectangle width="30" height="30" as="alternateBounds" />
          </mxGeometry>
        </mxCell>
        <mxCell id="diK6dFrDXfG8zKTfdCGS-38" value="興味あるイベントID（FK）" style="shape=partialRectangle;connectable=0;fillColor=none;top=0;left=0;bottom=0;right=0;align=left;spacingLeft=6;overflow=hidden;" vertex="1" parent="diK6dFrDXfG8zKTfdCGS-36">
          <mxGeometry x="30" width="150" height="30" as="geometry">
            <mxRectangle width="150" height="30" as="alternateBounds" />
          </mxGeometry>
        </mxCell>
        <mxCell id="diK6dFrDXfG8zKTfdCGS-39" value="" style="shape=tableRow;horizontal=0;startSize=0;swimlaneHead=0;swimlaneBody=0;fillColor=none;collapsible=0;dropTarget=0;points=[[0,0.5],[1,0.5]];portConstraint=eastwest;top=0;left=0;right=0;bottom=0;" vertex="1" parent="diK6dFrDXfG8zKTfdCGS-66">
          <mxGeometry y="210" width="180" height="30" as="geometry" />
        </mxCell>
        <mxCell id="diK6dFrDXfG8zKTfdCGS-40" value="" style="shape=partialRectangle;connectable=0;fillColor=none;top=0;left=0;bottom=0;right=0;editable=1;overflow=hidden;" vertex="1" parent="diK6dFrDXfG8zKTfdCGS-39">
          <mxGeometry width="30" height="30" as="geometry">
            <mxRectangle width="30" height="30" as="alternateBounds" />
          </mxGeometry>
        </mxCell>
        <mxCell id="diK6dFrDXfG8zKTfdCGS-41" value="参加チームID（FK）" style="shape=partialRectangle;connectable=0;fillColor=none;top=0;left=0;bottom=0;right=0;align=left;spacingLeft=6;overflow=hidden;" vertex="1" parent="diK6dFrDXfG8zKTfdCGS-39">
          <mxGeometry x="30" width="150" height="30" as="geometry">
            <mxRectangle width="150" height="30" as="alternateBounds" />
          </mxGeometry>
        </mxCell>
        <mxCell id="diK6dFrDXfG8zKTfdCGS-68" value="チャットテーブル" style="shape=table;startSize=30;container=1;collapsible=1;childLayout=tableLayout;fixedRows=1;rowLines=0;fontStyle=1;align=center;resizeLast=1;movable=1;resizable=1;rotatable=1;deletable=1;editable=1;connectable=1;" vertex="1" parent="1">
          <mxGeometry x="324" y="345" width="180" height="240" as="geometry">
            <mxRectangle x="40" y="320" width="120" height="30" as="alternateBounds" />
          </mxGeometry>
        </mxCell>
        <mxCell id="diK6dFrDXfG8zKTfdCGS-69" value="" style="shape=tableRow;horizontal=0;startSize=0;swimlaneHead=0;swimlaneBody=0;fillColor=none;collapsible=0;dropTarget=0;points=[[0,0.5],[1,0.5]];portConstraint=eastwest;top=0;left=0;right=0;bottom=1;movable=1;resizable=1;rotatable=1;deletable=1;editable=1;connectable=1;" vertex="1" parent="diK6dFrDXfG8zKTfdCGS-68">
          <mxGeometry y="30" width="180" height="30" as="geometry" />
        </mxCell>
        <mxCell id="diK6dFrDXfG8zKTfdCGS-70" value="PK" style="shape=partialRectangle;connectable=1;fillColor=none;top=0;left=0;bottom=0;right=0;fontStyle=1;overflow=hidden;movable=1;resizable=1;rotatable=1;deletable=1;editable=1;" vertex="1" parent="diK6dFrDXfG8zKTfdCGS-69">
          <mxGeometry width="30" height="30" as="geometry">
            <mxRectangle width="30" height="30" as="alternateBounds" />
          </mxGeometry>
        </mxCell>
        <mxCell id="diK6dFrDXfG8zKTfdCGS-71" value="チャットID" style="shape=partialRectangle;connectable=1;fillColor=none;top=0;left=0;bottom=0;right=0;align=left;spacingLeft=6;fontStyle=5;overflow=hidden;movable=1;resizable=1;rotatable=1;deletable=1;editable=1;" vertex="1" parent="diK6dFrDXfG8zKTfdCGS-69">
          <mxGeometry x="30" width="150" height="30" as="geometry">
            <mxRectangle width="150" height="30" as="alternateBounds" />
          </mxGeometry>
        </mxCell>
        <mxCell id="diK6dFrDXfG8zKTfdCGS-72" value="" style="shape=tableRow;horizontal=0;startSize=0;swimlaneHead=0;swimlaneBody=0;fillColor=none;collapsible=0;dropTarget=0;points=[[0,0.5],[1,0.5]];portConstraint=eastwest;top=0;left=0;right=0;bottom=0;movable=1;resizable=1;rotatable=1;deletable=1;editable=1;connectable=1;" vertex="1" parent="diK6dFrDXfG8zKTfdCGS-68">
          <mxGeometry y="60" width="180" height="30" as="geometry" />
        </mxCell>
        <mxCell id="diK6dFrDXfG8zKTfdCGS-73" value="" style="shape=partialRectangle;connectable=1;fillColor=none;top=0;left=0;bottom=0;right=0;editable=1;overflow=hidden;movable=1;resizable=1;rotatable=1;deletable=1;" vertex="1" parent="diK6dFrDXfG8zKTfdCGS-72">
          <mxGeometry width="30" height="30" as="geometry">
            <mxRectangle width="30" height="30" as="alternateBounds" />
          </mxGeometry>
        </mxCell>
        <mxCell id="diK6dFrDXfG8zKTfdCGS-74" value="ユーザー１" style="shape=partialRectangle;connectable=1;fillColor=none;top=0;left=0;bottom=0;right=0;align=left;spacingLeft=6;overflow=hidden;movable=1;resizable=1;rotatable=1;deletable=1;editable=1;" vertex="1" parent="diK6dFrDXfG8zKTfdCGS-72">
          <mxGeometry x="30" width="150" height="30" as="geometry">
            <mxRectangle width="150" height="30" as="alternateBounds" />
          </mxGeometry>
        </mxCell>
        <mxCell id="diK6dFrDXfG8zKTfdCGS-75" value="" style="shape=tableRow;horizontal=0;startSize=0;swimlaneHead=0;swimlaneBody=0;fillColor=none;collapsible=0;dropTarget=0;points=[[0,0.5],[1,0.5]];portConstraint=eastwest;top=0;left=0;right=0;bottom=0;movable=1;resizable=1;rotatable=1;deletable=1;editable=1;connectable=1;" vertex="1" parent="diK6dFrDXfG8zKTfdCGS-68">
          <mxGeometry y="90" width="180" height="30" as="geometry" />
        </mxCell>
        <mxCell id="diK6dFrDXfG8zKTfdCGS-76" value="" style="shape=partialRectangle;connectable=1;fillColor=none;top=0;left=0;bottom=0;right=0;editable=1;overflow=hidden;movable=1;resizable=1;rotatable=1;deletable=1;" vertex="1" parent="diK6dFrDXfG8zKTfdCGS-75">
          <mxGeometry width="30" height="30" as="geometry">
            <mxRectangle width="30" height="30" as="alternateBounds" />
          </mxGeometry>
        </mxCell>
        <mxCell id="diK6dFrDXfG8zKTfdCGS-77" value="ユーザー２" style="shape=partialRectangle;connectable=1;fillColor=none;top=0;left=0;bottom=0;right=0;align=left;spacingLeft=6;overflow=hidden;movable=1;resizable=1;rotatable=1;deletable=1;editable=1;" vertex="1" parent="diK6dFrDXfG8zKTfdCGS-75">
          <mxGeometry x="30" width="150" height="30" as="geometry">
            <mxRectangle width="150" height="30" as="alternateBounds" />
          </mxGeometry>
        </mxCell>
        <mxCell id="diK6dFrDXfG8zKTfdCGS-78" value="" style="shape=tableRow;horizontal=0;startSize=0;swimlaneHead=0;swimlaneBody=0;fillColor=none;collapsible=0;dropTarget=0;points=[[0,0.5],[1,0.5]];portConstraint=eastwest;top=0;left=0;right=0;bottom=0;movable=1;resizable=1;rotatable=1;deletable=1;editable=1;connectable=1;" vertex="1" parent="diK6dFrDXfG8zKTfdCGS-68">
          <mxGeometry y="120" width="180" height="30" as="geometry" />
        </mxCell>
        <mxCell id="diK6dFrDXfG8zKTfdCGS-79" value="" style="shape=partialRectangle;connectable=1;fillColor=none;top=0;left=0;bottom=0;right=0;editable=1;overflow=hidden;movable=1;resizable=1;rotatable=1;deletable=1;" vertex="1" parent="diK6dFrDXfG8zKTfdCGS-78">
          <mxGeometry width="30" height="30" as="geometry">
            <mxRectangle width="30" height="30" as="alternateBounds" />
          </mxGeometry>
        </mxCell>
        <mxCell id="diK6dFrDXfG8zKTfdCGS-80" value="" style="shape=partialRectangle;connectable=1;fillColor=none;top=0;left=0;bottom=0;right=0;align=left;spacingLeft=6;overflow=hidden;movable=1;resizable=1;rotatable=1;deletable=1;editable=1;" vertex="1" parent="diK6dFrDXfG8zKTfdCGS-78">
          <mxGeometry x="30" width="150" height="30" as="geometry">
            <mxRectangle width="150" height="30" as="alternateBounds" />
          </mxGeometry>
        </mxCell>
        <mxCell id="diK6dFrDXfG8zKTfdCGS-83" value="" style="endArrow=classic;html=1;rounded=0;entryX=1;entryY=0.5;entryDx=0;entryDy=0;exitX=0;exitY=0.5;exitDx=0;exitDy=0;" edge="1" parent="1" source="diK6dFrDXfG8zKTfdCGS-36" target="diK6dFrDXfG8zKTfdCGS-2">
          <mxGeometry width="50" height="50" relative="1" as="geometry">
            <mxPoint x="310" y="220" as="sourcePoint" />
            <mxPoint x="270" y="90" as="targetPoint" />
          </mxGeometry>
        </mxCell>
        <mxCell id="diK6dFrDXfG8zKTfdCGS-85" value="" style="endArrow=classic;html=1;rounded=0;entryX=1;entryY=0.5;entryDx=0;entryDy=0;exitX=0;exitY=0.5;exitDx=0;exitDy=0;" edge="1" parent="1" source="diK6dFrDXfG8zKTfdCGS-39" target="diK6dFrDXfG8zKTfdCGS-45">
          <mxGeometry width="50" height="50" relative="1" as="geometry">
            <mxPoint x="390" y="350" as="sourcePoint" />
            <mxPoint x="440" y="300" as="targetPoint" />
          </mxGeometry>
        </mxCell>
        <mxCell id="diK6dFrDXfG8zKTfdCGS-89" value="" style="endArrow=classic;html=1;rounded=0;exitX=0;exitY=0.5;exitDx=0;exitDy=0;entryX=-0.022;entryY=0.733;entryDx=0;entryDy=0;entryPerimeter=0;" edge="1" parent="1" source="diK6dFrDXfG8zKTfdCGS-56" target="diK6dFrDXfG8zKTfdCGS-2">
          <mxGeometry width="50" height="50" relative="1" as="geometry">
            <mxPoint x="30" y="190" as="sourcePoint" />
            <mxPoint x="80" y="140" as="targetPoint" />
            <Array as="points">
              <mxPoint x="40" y="485" />
              <mxPoint x="40" y="92" />
            </Array>
          </mxGeometry>
        </mxCell>
        <mxCell id="diK6dFrDXfG8zKTfdCGS-90" value="" style="endArrow=classic;html=1;rounded=0;exitX=1;exitY=0.5;exitDx=0;exitDy=0;entryX=1;entryY=0.5;entryDx=0;entryDy=0;" edge="1" parent="1" source="diK6dFrDXfG8zKTfdCGS-54" target="diK6dFrDXfG8zKTfdCGS-21">
          <mxGeometry width="50" height="50" relative="1" as="geometry">
            <mxPoint x="390" y="350" as="sourcePoint" />
            <mxPoint x="440" y="300" as="targetPoint" />
            <Array as="points">
              <mxPoint x="300" y="455" />
              <mxPoint x="300" y="330" />
              <mxPoint x="550" y="330" />
              <mxPoint x="550" y="85" />
            </Array>
          </mxGeometry>
        </mxCell>
        <mxCell id="diK6dFrDXfG8zKTfdCGS-104" value="メッセージテーブル" style="shape=table;startSize=30;container=1;collapsible=1;childLayout=tableLayout;fixedRows=1;rowLines=0;fontStyle=1;align=center;resizeLast=1;movable=1;resizable=1;rotatable=1;deletable=1;editable=1;connectable=1;" vertex="1" parent="1">
          <mxGeometry x="590" y="345" width="180" height="240" as="geometry">
            <mxRectangle x="40" y="320" width="120" height="30" as="alternateBounds" />
          </mxGeometry>
        </mxCell>
        <mxCell id="diK6dFrDXfG8zKTfdCGS-105" value="" style="shape=tableRow;horizontal=0;startSize=0;swimlaneHead=0;swimlaneBody=0;fillColor=none;collapsible=0;dropTarget=0;points=[[0,0.5],[1,0.5]];portConstraint=eastwest;top=0;left=0;right=0;bottom=1;movable=1;resizable=1;rotatable=1;deletable=1;editable=1;connectable=1;" vertex="1" parent="diK6dFrDXfG8zKTfdCGS-104">
          <mxGeometry y="30" width="180" height="30" as="geometry" />
        </mxCell>
        <mxCell id="diK6dFrDXfG8zKTfdCGS-106" value="PK" style="shape=partialRectangle;connectable=1;fillColor=none;top=0;left=0;bottom=0;right=0;fontStyle=1;overflow=hidden;movable=1;resizable=1;rotatable=1;deletable=1;editable=1;" vertex="1" parent="diK6dFrDXfG8zKTfdCGS-105">
          <mxGeometry width="30" height="30" as="geometry">
            <mxRectangle width="30" height="30" as="alternateBounds" />
          </mxGeometry>
        </mxCell>
        <mxCell id="diK6dFrDXfG8zKTfdCGS-107" value="メッセージID" style="shape=partialRectangle;connectable=1;fillColor=none;top=0;left=0;bottom=0;right=0;align=left;spacingLeft=6;fontStyle=5;overflow=hidden;movable=1;resizable=1;rotatable=1;deletable=1;editable=1;" vertex="1" parent="diK6dFrDXfG8zKTfdCGS-105">
          <mxGeometry x="30" width="150" height="30" as="geometry">
            <mxRectangle width="150" height="30" as="alternateBounds" />
          </mxGeometry>
        </mxCell>
        <mxCell id="diK6dFrDXfG8zKTfdCGS-108" value="" style="shape=tableRow;horizontal=0;startSize=0;swimlaneHead=0;swimlaneBody=0;fillColor=none;collapsible=0;dropTarget=0;points=[[0,0.5],[1,0.5]];portConstraint=eastwest;top=0;left=0;right=0;bottom=0;movable=1;resizable=1;rotatable=1;deletable=1;editable=1;connectable=1;" vertex="1" parent="diK6dFrDXfG8zKTfdCGS-104">
          <mxGeometry y="60" width="180" height="30" as="geometry" />
        </mxCell>
        <mxCell id="diK6dFrDXfG8zKTfdCGS-109" value="" style="shape=partialRectangle;connectable=1;fillColor=none;top=0;left=0;bottom=0;right=0;editable=1;overflow=hidden;movable=1;resizable=1;rotatable=1;deletable=1;" vertex="1" parent="diK6dFrDXfG8zKTfdCGS-108">
          <mxGeometry width="30" height="30" as="geometry">
            <mxRectangle width="30" height="30" as="alternateBounds" />
          </mxGeometry>
        </mxCell>
        <mxCell id="diK6dFrDXfG8zKTfdCGS-110" value="チャットID（FK）" style="shape=partialRectangle;connectable=1;fillColor=none;top=0;left=0;bottom=0;right=0;align=left;spacingLeft=6;overflow=hidden;movable=1;resizable=1;rotatable=1;deletable=1;editable=1;" vertex="1" parent="diK6dFrDXfG8zKTfdCGS-108">
          <mxGeometry x="30" width="150" height="30" as="geometry">
            <mxRectangle width="150" height="30" as="alternateBounds" />
          </mxGeometry>
        </mxCell>
        <mxCell id="diK6dFrDXfG8zKTfdCGS-111" value="" style="shape=tableRow;horizontal=0;startSize=0;swimlaneHead=0;swimlaneBody=0;fillColor=none;collapsible=0;dropTarget=0;points=[[0,0.5],[1,0.5]];portConstraint=eastwest;top=0;left=0;right=0;bottom=0;movable=1;resizable=1;rotatable=1;deletable=1;editable=1;connectable=1;" vertex="1" parent="diK6dFrDXfG8zKTfdCGS-104">
          <mxGeometry y="90" width="180" height="30" as="geometry" />
        </mxCell>
        <mxCell id="diK6dFrDXfG8zKTfdCGS-112" value="" style="shape=partialRectangle;connectable=1;fillColor=none;top=0;left=0;bottom=0;right=0;editable=1;overflow=hidden;movable=1;resizable=1;rotatable=1;deletable=1;" vertex="1" parent="diK6dFrDXfG8zKTfdCGS-111">
          <mxGeometry width="30" height="30" as="geometry">
            <mxRectangle width="30" height="30" as="alternateBounds" />
          </mxGeometry>
        </mxCell>
        <mxCell id="diK6dFrDXfG8zKTfdCGS-113" value="投稿したカスタマー（FK）" style="shape=partialRectangle;connectable=1;fillColor=none;top=0;left=0;bottom=0;right=0;align=left;spacingLeft=6;overflow=hidden;movable=1;resizable=1;rotatable=1;deletable=1;editable=1;" vertex="1" parent="diK6dFrDXfG8zKTfdCGS-111">
          <mxGeometry x="30" width="150" height="30" as="geometry">
            <mxRectangle width="150" height="30" as="alternateBounds" />
          </mxGeometry>
        </mxCell>
        <mxCell id="diK6dFrDXfG8zKTfdCGS-114" value="" style="shape=tableRow;horizontal=0;startSize=0;swimlaneHead=0;swimlaneBody=0;fillColor=none;collapsible=0;dropTarget=0;points=[[0,0.5],[1,0.5]];portConstraint=eastwest;top=0;left=0;right=0;bottom=0;movable=1;resizable=1;rotatable=1;deletable=1;editable=1;connectable=1;" vertex="1" parent="diK6dFrDXfG8zKTfdCGS-104">
          <mxGeometry y="120" width="180" height="30" as="geometry" />
        </mxCell>
        <mxCell id="diK6dFrDXfG8zKTfdCGS-115" value="" style="shape=partialRectangle;connectable=1;fillColor=none;top=0;left=0;bottom=0;right=0;editable=1;overflow=hidden;movable=1;resizable=1;rotatable=1;deletable=1;" vertex="1" parent="diK6dFrDXfG8zKTfdCGS-114">
          <mxGeometry width="30" height="30" as="geometry">
            <mxRectangle width="30" height="30" as="alternateBounds" />
          </mxGeometry>
        </mxCell>
        <mxCell id="diK6dFrDXfG8zKTfdCGS-116" value="本文" style="shape=partialRectangle;connectable=1;fillColor=none;top=0;left=0;bottom=0;right=0;align=left;spacingLeft=6;overflow=hidden;movable=1;resizable=1;rotatable=1;deletable=1;editable=1;" vertex="1" parent="diK6dFrDXfG8zKTfdCGS-114">
          <mxGeometry x="30" width="150" height="30" as="geometry">
            <mxRectangle width="150" height="30" as="alternateBounds" />
          </mxGeometry>
        </mxCell>
        <mxCell id="diK6dFrDXfG8zKTfdCGS-117" value="" style="shape=tableRow;horizontal=0;startSize=0;swimlaneHead=0;swimlaneBody=0;fillColor=none;collapsible=0;dropTarget=0;points=[[0,0.5],[1,0.5]];portConstraint=eastwest;top=0;left=0;right=0;bottom=0;movable=1;resizable=1;rotatable=1;deletable=1;editable=1;connectable=1;" vertex="1" parent="1">
          <mxGeometry x="590" y="500" width="180" height="30" as="geometry" />
        </mxCell>
        <mxCell id="diK6dFrDXfG8zKTfdCGS-118" value="" style="shape=partialRectangle;connectable=1;fillColor=none;top=0;left=0;bottom=0;right=0;editable=1;overflow=hidden;movable=1;resizable=1;rotatable=1;deletable=1;" vertex="1" parent="diK6dFrDXfG8zKTfdCGS-117">
          <mxGeometry width="30" height="30" as="geometry">
            <mxRectangle width="30" height="30" as="alternateBounds" />
          </mxGeometry>
        </mxCell>
        <mxCell id="diK6dFrDXfG8zKTfdCGS-119" value="投稿時間" style="shape=partialRectangle;connectable=1;fillColor=none;top=0;left=0;bottom=0;right=0;align=left;spacingLeft=6;overflow=hidden;movable=1;resizable=1;rotatable=1;deletable=1;editable=1;" vertex="1" parent="diK6dFrDXfG8zKTfdCGS-117">
          <mxGeometry x="30" width="150" height="30" as="geometry">
            <mxRectangle width="150" height="30" as="alternateBounds" />
          </mxGeometry>
        </mxCell>
        <mxCell id="diK6dFrDXfG8zKTfdCGS-120" value="" style="endArrow=classic;html=1;rounded=0;exitX=0;exitY=0.5;exitDx=0;exitDy=0;" edge="1" parent="1" source="diK6dFrDXfG8zKTfdCGS-112">
          <mxGeometry width="50" height="50" relative="1" as="geometry">
            <mxPoint x="590" y="430" as="sourcePoint" />
            <mxPoint x="510" y="90" as="targetPoint" />
            <Array as="points">
              <mxPoint x="560" y="450" />
              <mxPoint x="560" y="90" />
            </Array>
          </mxGeometry>
        </mxCell>
        <mxCell id="diK6dFrDXfG8zKTfdCGS-121" value="" style="endArrow=classic;html=1;rounded=0;exitX=0;exitY=0.5;exitDx=0;exitDy=0;" edge="1" parent="1" source="diK6dFrDXfG8zKTfdCGS-109">
          <mxGeometry width="50" height="50" relative="1" as="geometry">
            <mxPoint x="454" y="440" as="sourcePoint" />
            <mxPoint x="504" y="390" as="targetPoint" />
          </mxGeometry>
        </mxCell>
        <mxCell id="diK6dFrDXfG8zKTfdCGS-122" value="※一旦ユーザー同士のチャット機能のみ" style="text;html=1;align=center;verticalAlign=middle;resizable=0;points=[];autosize=1;strokeColor=#666666;fillColor=#f5f5f5;strokeWidth=1;fontColor=#333333;" vertex="1" parent="1">
          <mxGeometry x="440" y="610" width="230" height="30" as="geometry" />
        </mxCell>
        <mxCell id="diK6dFrDXfG8zKTfdCGS-124" value="" style="group" vertex="1" connectable="0" parent="1">
          <mxGeometry x="600" y="40" width="220" height="240" as="geometry" />
        </mxCell>
        <mxCell id="diK6dFrDXfG8zKTfdCGS-125" value="いいねテーブル" style="shape=table;startSize=30;container=1;collapsible=1;childLayout=tableLayout;fixedRows=1;rowLines=0;fontStyle=1;align=center;resizeLast=1;" vertex="1" parent="diK6dFrDXfG8zKTfdCGS-124">
          <mxGeometry width="220" height="240" as="geometry" />
        </mxCell>
        <mxCell id="diK6dFrDXfG8zKTfdCGS-126" value="" style="shape=tableRow;horizontal=0;startSize=0;swimlaneHead=0;swimlaneBody=0;fillColor=none;collapsible=0;dropTarget=0;points=[[0,0.5],[1,0.5]];portConstraint=eastwest;top=0;left=0;right=0;bottom=1;" vertex="1" parent="diK6dFrDXfG8zKTfdCGS-125">
          <mxGeometry y="30" width="220" height="30" as="geometry" />
        </mxCell>
        <mxCell id="diK6dFrDXfG8zKTfdCGS-127" value="PK" style="shape=partialRectangle;connectable=0;fillColor=none;top=0;left=0;bottom=0;right=0;fontStyle=1;overflow=hidden;" vertex="1" parent="diK6dFrDXfG8zKTfdCGS-126">
          <mxGeometry width="30" height="30" as="geometry">
            <mxRectangle width="30" height="30" as="alternateBounds" />
          </mxGeometry>
        </mxCell>
        <mxCell id="diK6dFrDXfG8zKTfdCGS-128" value="いいねID" style="shape=partialRectangle;connectable=0;fillColor=none;top=0;left=0;bottom=0;right=0;align=left;spacingLeft=6;fontStyle=5;overflow=hidden;" vertex="1" parent="diK6dFrDXfG8zKTfdCGS-126">
          <mxGeometry x="30" width="190" height="30" as="geometry">
            <mxRectangle width="190" height="30" as="alternateBounds" />
          </mxGeometry>
        </mxCell>
        <mxCell id="diK6dFrDXfG8zKTfdCGS-129" value="" style="shape=tableRow;horizontal=0;startSize=0;swimlaneHead=0;swimlaneBody=0;fillColor=none;collapsible=0;dropTarget=0;points=[[0,0.5],[1,0.5]];portConstraint=eastwest;top=0;left=0;right=0;bottom=0;" vertex="1" parent="diK6dFrDXfG8zKTfdCGS-125">
          <mxGeometry y="60" width="220" height="30" as="geometry" />
        </mxCell>
        <mxCell id="diK6dFrDXfG8zKTfdCGS-130" value="" style="shape=partialRectangle;connectable=0;fillColor=none;top=0;left=0;bottom=0;right=0;editable=1;overflow=hidden;" vertex="1" parent="diK6dFrDXfG8zKTfdCGS-129">
          <mxGeometry width="30" height="30" as="geometry">
            <mxRectangle width="30" height="30" as="alternateBounds" />
          </mxGeometry>
        </mxCell>
        <mxCell id="diK6dFrDXfG8zKTfdCGS-131" value="いいねを与えたカスタマー（FK）" style="shape=partialRectangle;connectable=0;fillColor=none;top=0;left=0;bottom=0;right=0;align=left;spacingLeft=6;overflow=hidden;" vertex="1" parent="diK6dFrDXfG8zKTfdCGS-129">
          <mxGeometry x="30" width="190" height="30" as="geometry">
            <mxRectangle width="190" height="30" as="alternateBounds" />
          </mxGeometry>
        </mxCell>
        <mxCell id="diK6dFrDXfG8zKTfdCGS-132" value="" style="shape=tableRow;horizontal=0;startSize=0;swimlaneHead=0;swimlaneBody=0;fillColor=none;collapsible=0;dropTarget=0;points=[[0,0.5],[1,0.5]];portConstraint=eastwest;top=0;left=0;right=0;bottom=0;" vertex="1" parent="diK6dFrDXfG8zKTfdCGS-125">
          <mxGeometry y="90" width="220" height="30" as="geometry" />
        </mxCell>
        <mxCell id="diK6dFrDXfG8zKTfdCGS-133" value="" style="shape=partialRectangle;connectable=0;fillColor=none;top=0;left=0;bottom=0;right=0;editable=1;overflow=hidden;" vertex="1" parent="diK6dFrDXfG8zKTfdCGS-132">
          <mxGeometry width="30" height="30" as="geometry">
            <mxRectangle width="30" height="30" as="alternateBounds" />
          </mxGeometry>
        </mxCell>
        <mxCell id="diK6dFrDXfG8zKTfdCGS-134" value="いいねを受けたカスタマー（FK）" style="shape=partialRectangle;connectable=0;fillColor=none;top=0;left=0;bottom=0;right=0;align=left;spacingLeft=6;overflow=hidden;" vertex="1" parent="diK6dFrDXfG8zKTfdCGS-132">
          <mxGeometry x="30" width="190" height="30" as="geometry">
            <mxRectangle width="190" height="30" as="alternateBounds" />
          </mxGeometry>
        </mxCell>
        <mxCell id="diK6dFrDXfG8zKTfdCGS-135" value="" style="shape=tableRow;horizontal=0;startSize=0;swimlaneHead=0;swimlaneBody=0;fillColor=none;collapsible=0;dropTarget=0;points=[[0,0.5],[1,0.5]];portConstraint=eastwest;top=0;left=0;right=0;bottom=0;" vertex="1" parent="diK6dFrDXfG8zKTfdCGS-125">
          <mxGeometry y="120" width="220" height="30" as="geometry" />
        </mxCell>
        <mxCell id="diK6dFrDXfG8zKTfdCGS-136" value="" style="shape=partialRectangle;connectable=0;fillColor=none;top=0;left=0;bottom=0;right=0;editable=1;overflow=hidden;" vertex="1" parent="diK6dFrDXfG8zKTfdCGS-135">
          <mxGeometry width="30" height="30" as="geometry">
            <mxRectangle width="30" height="30" as="alternateBounds" />
          </mxGeometry>
        </mxCell>
        <mxCell id="diK6dFrDXfG8zKTfdCGS-137" value="マッチングフラグ" style="shape=partialRectangle;connectable=0;fillColor=none;top=0;left=0;bottom=0;right=0;align=left;spacingLeft=6;overflow=hidden;" vertex="1" parent="diK6dFrDXfG8zKTfdCGS-135">
          <mxGeometry x="30" width="190" height="30" as="geometry">
            <mxRectangle width="190" height="30" as="alternateBounds" />
          </mxGeometry>
        </mxCell>
        <mxCell id="diK6dFrDXfG8zKTfdCGS-138" value="" style="shape=tableRow;horizontal=0;startSize=0;swimlaneHead=0;swimlaneBody=0;fillColor=none;collapsible=0;dropTarget=0;points=[[0,0.5],[1,0.5]];portConstraint=eastwest;top=0;left=0;right=0;bottom=0;" vertex="1" parent="diK6dFrDXfG8zKTfdCGS-124">
          <mxGeometry y="150" width="220.00000000000003" height="30" as="geometry" />
        </mxCell>
        <mxCell id="diK6dFrDXfG8zKTfdCGS-139" value="" style="shape=partialRectangle;connectable=0;fillColor=none;top=0;left=0;bottom=0;right=0;editable=1;overflow=hidden;" vertex="1" parent="diK6dFrDXfG8zKTfdCGS-138">
          <mxGeometry width="36.66666666666667" height="30" as="geometry">
            <mxRectangle width="30" height="30" as="alternateBounds" />
          </mxGeometry>
        </mxCell>
        <mxCell id="diK6dFrDXfG8zKTfdCGS-140" value="" style="shape=partialRectangle;connectable=0;fillColor=none;top=0;left=0;bottom=0;right=0;align=left;spacingLeft=6;overflow=hidden;" vertex="1" parent="diK6dFrDXfG8zKTfdCGS-138">
          <mxGeometry x="36.66666666666667" width="183.33333333333334" height="30" as="geometry">
            <mxRectangle width="150" height="30" as="alternateBounds" />
          </mxGeometry>
        </mxCell>
        <mxCell id="diK6dFrDXfG8zKTfdCGS-141" value="" style="shape=tableRow;horizontal=0;startSize=0;swimlaneHead=0;swimlaneBody=0;fillColor=none;collapsible=0;dropTarget=0;points=[[0,0.5],[1,0.5]];portConstraint=eastwest;top=0;left=0;right=0;bottom=0;" vertex="1" parent="diK6dFrDXfG8zKTfdCGS-124">
          <mxGeometry y="180" width="220.00000000000003" height="30" as="geometry" />
        </mxCell>
        <mxCell id="diK6dFrDXfG8zKTfdCGS-142" value="" style="shape=partialRectangle;connectable=0;fillColor=none;top=0;left=0;bottom=0;right=0;editable=1;overflow=hidden;" vertex="1" parent="diK6dFrDXfG8zKTfdCGS-141">
          <mxGeometry width="36.66666666666667" height="30" as="geometry">
            <mxRectangle width="30" height="30" as="alternateBounds" />
          </mxGeometry>
        </mxCell>
        <mxCell id="diK6dFrDXfG8zKTfdCGS-143" value="" style="shape=partialRectangle;connectable=0;fillColor=none;top=0;left=0;bottom=0;right=0;align=left;spacingLeft=6;overflow=hidden;" vertex="1" parent="diK6dFrDXfG8zKTfdCGS-141">
          <mxGeometry x="36.66666666666667" width="183.33333333333334" height="30" as="geometry">
            <mxRectangle width="150" height="30" as="alternateBounds" />
          </mxGeometry>
        </mxCell>
        <mxCell id="diK6dFrDXfG8zKTfdCGS-144" value="" style="shape=tableRow;horizontal=0;startSize=0;swimlaneHead=0;swimlaneBody=0;fillColor=none;collapsible=0;dropTarget=0;points=[[0,0.5],[1,0.5]];portConstraint=eastwest;top=0;left=0;right=0;bottom=0;" vertex="1" parent="diK6dFrDXfG8zKTfdCGS-124">
          <mxGeometry y="210" width="220.00000000000003" height="30" as="geometry" />
        </mxCell>
        <mxCell id="diK6dFrDXfG8zKTfdCGS-145" value="" style="shape=partialRectangle;connectable=0;fillColor=none;top=0;left=0;bottom=0;right=0;editable=1;overflow=hidden;" vertex="1" parent="diK6dFrDXfG8zKTfdCGS-144">
          <mxGeometry width="36.66666666666667" height="30" as="geometry">
            <mxRectangle width="30" height="30" as="alternateBounds" />
          </mxGeometry>
        </mxCell>
        <mxCell id="diK6dFrDXfG8zKTfdCGS-146" value="" style="shape=partialRectangle;connectable=0;fillColor=none;top=0;left=0;bottom=0;right=0;align=left;spacingLeft=6;overflow=hidden;" vertex="1" parent="diK6dFrDXfG8zKTfdCGS-144">
          <mxGeometry x="36.66666666666667" width="183.33333333333334" height="30" as="geometry">
            <mxRectangle width="150" height="30" as="alternateBounds" />
          </mxGeometry>
        </mxCell>
        <mxCell id="diK6dFrDXfG8zKTfdCGS-147" value="" style="endArrow=classic;html=1;rounded=0;entryX=1.006;entryY=0.3;entryDx=0;entryDy=0;entryPerimeter=0;exitX=0;exitY=0.5;exitDx=0;exitDy=0;" edge="1" parent="1" source="diK6dFrDXfG8zKTfdCGS-129" target="diK6dFrDXfG8zKTfdCGS-21">
          <mxGeometry width="50" height="50" relative="1" as="geometry">
            <mxPoint x="390" y="350" as="sourcePoint" />
            <mxPoint x="440" y="300" as="targetPoint" />
            <Array as="points">
              <mxPoint x="570" y="115" />
              <mxPoint x="570" y="80" />
            </Array>
          </mxGeometry>
        </mxCell>
        <mxCell id="diK6dFrDXfG8zKTfdCGS-161" value="" style="endArrow=classic;html=1;rounded=0;exitX=0;exitY=0.5;exitDx=0;exitDy=0;" edge="1" parent="1">
          <mxGeometry width="50" height="50" relative="1" as="geometry">
            <mxPoint x="600" y="146" as="sourcePoint" />
            <mxPoint x="505" y="70" as="targetPoint" />
            <Array as="points">
              <mxPoint x="580" y="146" />
              <mxPoint x="580" y="70" />
            </Array>
          </mxGeometry>
        </mxCell>
        <mxCell id="diK6dFrDXfG8zKTfdCGS-163" value="いいねを受けたら通知が来て、返すかスルーするかを選ぶ" style="text;html=1;align=center;verticalAlign=middle;resizable=0;points=[];autosize=1;strokeColor=#666666;fillColor=#f5f5f5;fontColor=#333333;" vertex="1" parent="1">
          <mxGeometry x="50" y="610" width="340" height="30" as="geometry" />
        </mxCell>
      </root>
    </mxGraphModel>
  </diagram>
</mxfile>
